<svg xmlns="http://www.w3.org/2000/svg" fill-rule="evenodd" stroke-linejoin="round" stroke-miterlimit="2" clip-rule="evenodd" viewBox="0 0 64 64"><g transform="translate(-320 -192)"><path d="M339,200L339,208C339,209.657 337.657,211 336,211C336,211 328,211 328,211C326.343,211 325,209.657 325,208C325,208 325,200 325,200C325,198.343 326.343,197 328,197C328,197 336,197 336,197C337.657,197 339,198.343 339,200Z"/><path d="M339,200L339,208C339,209.657 337.657,211 336,211C336,211 328,211 328,211C326.343,211 325,209.657 325,208C325,208 325,200 325,200C325,198.343 326.343,197 328,197C328,197 336,197 336,197C337.657,197 339,198.343 339,200Z" transform="translate(0 20)"/><path d="M339,200L339,208C339,209.657 337.657,211 336,211C336,211 328,211 328,211C326.343,211 325,209.657 325,208C325,208 325,200 325,200C325,198.343 326.343,197 328,197C328,197 336,197 336,197C337.657,197 339,198.343 339,200Z" transform="translate(0 40)"/><path d="M339,200L339,208C339,209.657 337.657,211 336,211C336,211 328,211 328,211C326.343,211 325,209.657 325,208C325,208 325,200 325,200C325,198.343 326.343,197 328,197C328,197 336,197 336,197C337.657,197 339,198.343 339,200Z" transform="translate(20)"/><path d="M339,200L339,208C339,209.657 337.657,211 336,211C336,211 328,211 328,211C326.343,211 325,209.657 325,208C325,208 325,200 325,200C325,198.343 326.343,197 328,197C328,197 336,197 336,197C337.657,197 339,198.343 339,200Z" transform="translate(20 20)"/><path d="M339,200L339,208C339,209.657 337.657,211 336,211C336,211 328,211 328,211C326.343,211 325,209.657 325,208C325,208 325,200 325,200C325,198.343 326.343,197 328,197C328,197 336,197 336,197C337.657,197 339,198.343 339,200Z" transform="translate(20 40)"/><path d="M339,200L339,208C339,209.657 337.657,211 336,211C336,211 328,211 328,211C326.343,211 325,209.657 325,208C325,208 325,200 325,200C325,198.343 326.343,197 328,197C328,197 336,197 336,197C337.657,197 339,198.343 339,200Z" transform="translate(40)"/><path d="M339,200L339,208C339,209.657 337.657,211 336,211C336,211 328,211 328,211C326.343,211 325,209.657 325,208C325,208 325,200 325,200C325,198.343 326.343,197 328,197C328,197 336,197 336,197C337.657,197 339,198.343 339,200Z" transform="translate(40 20)"/><path d="M339,200L339,208C339,209.657 337.657,211 336,211C336,211 328,211 328,211C326.343,211 325,209.657 325,208C325,208 325,200 325,200C325,198.343 326.343,197 328,197C328,197 336,197 336,197C337.657,197 339,198.343 339,200Z" transform="translate(40 40)"/></g></svg>